<svg width="190" height="44" viewBox="0 0 190 44" fill="none" xmlns="http://www.w3.org/2000/svg">
<g clip-path="url(#clip0_8_332)">
<path d="M26.9861 10.9315H30.6591V34.4537H26.9861V10.9315ZM16 10.9315H19.7069V34.4537H16V10.9315ZM19.3026 20.7718H27.3567V23.8049H19.3026V20.7718Z" fill="#CBD5E1"/>
<path d="M40.3331 34.8245C38.7607 34.8245 37.4239 34.4761 36.3229 33.7798C35.2446 33.0611 34.4132 32.0387 33.8291 30.7132C33.2674 29.3876 32.9866 27.7923 32.9866 25.9279V10.9315H36.6936V25.9279C36.6936 27.8375 37.008 29.2977 37.6373 30.3089C38.266 31.2972 39.1538 31.7914 40.2996 31.7914C41.4677 31.7914 42.3662 31.286 42.9955 30.2749C43.6247 29.2641 43.939 27.8151 43.939 25.9279V10.9315H47.6462V25.9279C47.6462 27.77 47.3652 29.3652 46.8035 30.7132C46.2417 32.0387 45.4105 33.0611 44.3097 33.7798C43.2087 34.4761 41.8832 34.8245 40.3331 34.8245Z" fill="#CBD5E1"/>
<path d="M49.9485 10.9315H53.9922L60.968 27.7476C60.9232 25.6358 60.9005 23.3331 60.9005 20.8393V10.9315H64.574V34.4537H60.4962L53.588 17.604C53.6327 19.6934 53.6555 21.9963 53.6555 24.5124V34.4537H49.9485V10.9315Z" fill="#CBD5E1"/>
<path d="M70.8453 13.9645H65.5205V10.9315H79.8428V13.9645H74.5183V34.4537H70.8453V13.9645Z" fill="#CBD5E1"/>
<path d="M125.191 34.797C123.73 34.797 122.461 34.4374 121.383 33.7183C120.327 32.9996 119.518 31.9884 118.956 30.6857C118.395 29.3601 118.114 27.8212 118.114 26.0685L121.686 25.6978C121.619 26.8887 121.72 27.9446 121.989 28.8659C122.259 29.7644 122.663 30.4719 123.203 30.9889C123.742 31.4831 124.393 31.7304 125.157 31.7304C125.674 31.7304 126.146 31.6065 126.572 31.3596C127.022 31.1123 127.37 30.7639 127.617 30.3149C127.887 29.8431 128.021 29.2702 128.021 28.5962C128.021 27.8324 127.842 27.1808 127.483 26.6414C127.123 26.0797 126.674 25.6195 126.135 25.2599C125.595 24.878 124.854 24.4397 123.91 23.9456C122.764 23.3391 121.821 22.7774 121.08 22.2604C120.361 21.7215 119.743 21.0135 119.226 20.1375C118.732 19.2613 118.485 18.183 118.485 16.9024C118.485 15.5544 118.765 14.3974 119.327 13.4313C119.889 12.4428 120.641 11.7014 121.585 11.2072C122.551 10.7129 123.618 10.4658 124.786 10.4658C126.157 10.4658 127.348 10.7803 128.359 11.4094C129.369 12.0159 130.145 12.8921 130.684 14.0379C131.246 15.1612 131.549 16.4867 131.594 18.0145L127.92 18.4188C127.943 17.4303 127.819 16.5654 127.55 15.824C127.303 15.0826 126.932 14.5209 126.438 14.139C125.966 13.7346 125.427 13.5324 124.82 13.5324C124.326 13.5324 123.877 13.656 123.472 13.9031C123.09 14.1278 122.776 14.476 122.529 14.9478C122.304 15.3971 122.191 15.9251 122.191 16.5317C122.191 17.2731 122.371 17.9246 122.731 18.4862C123.09 19.0255 123.539 19.4748 124.079 19.8342C124.618 20.1937 125.359 20.6318 126.303 21.1486C127.471 21.8002 128.415 22.3955 129.134 22.9344C129.853 23.4514 130.47 24.1477 130.987 25.0238C131.504 25.9004 131.762 26.9786 131.762 28.259C131.762 29.607 131.47 30.7756 130.886 31.7639C130.324 32.7299 129.549 33.4826 128.561 34.0215C127.572 34.5385 126.449 34.797 125.191 34.797Z" fill="#CBD5E1"/>
<path d="M136.466 13.9031H131.142V10.8701H145.464V13.9031H140.14V34.3922H136.466V13.9031Z" fill="#CBD5E1"/>
<path d="M148.261 10.8701H153.888L159.213 34.3922H155.405L152.473 20.9124C151.799 18.1942 151.338 15.9251 151.091 14.1053C150.664 16.1722 150.193 18.43 149.676 20.8789L146.609 34.3922H142.801L148.261 10.8701ZM146.239 25.0578H155.91V28.0904H146.239V25.0578Z" fill="#CBD5E1"/>
<path d="M160.223 10.8701H166.019C167.3 10.8701 168.468 11.1285 169.524 11.6452C170.58 12.162 171.411 12.9258 172.018 13.9368C172.647 14.9478 172.962 16.1497 172.962 17.5427C172.962 18.5536 172.804 19.4635 172.49 20.2723C172.198 21.0811 171.771 21.755 171.209 22.2944C170.648 22.8333 169.996 23.204 169.255 23.4062C170.064 23.5412 170.681 23.8892 171.108 24.4509C171.535 24.9902 171.816 25.6079 171.95 26.3046C172.085 27.001 172.164 27.8324 172.187 28.7984C172.187 29.1351 172.187 29.4388 172.187 29.708C172.209 29.9777 172.231 30.2809 172.254 30.6181C172.321 31.4043 172.411 32.1235 172.523 32.7746C172.658 33.4262 172.827 33.9656 173.029 34.3922H169.052C168.895 33.9656 168.783 33.3592 168.716 32.5725C168.648 31.7639 168.581 30.7639 168.513 29.5734C168.513 29.416 168.502 29.2925 168.479 29.2026C168.479 29.0904 168.479 28.9442 168.479 28.7644C168.457 27.776 168.345 26.9898 168.143 26.4057C167.94 25.8216 167.592 25.3834 167.098 25.0913C166.626 24.7769 165.975 24.6195 165.143 24.6195H163.93V34.3922H160.223V10.8701ZM166.019 21.5864C166.671 21.5864 167.233 21.4294 167.704 21.1146C168.176 20.8002 168.536 20.3509 168.783 19.7668C169.03 19.1827 169.153 18.4974 169.153 17.7111C169.153 16.5429 168.873 15.6218 168.311 14.9478C167.772 14.2513 167.008 13.9031 166.019 13.9031H163.93V21.5864H166.019Z" fill="#CBD5E1"/>
<path d="M94.9197 19.0857L93.4222 10L91.9245 19.0857C91.814 19.7559 91.3542 20.3163 90.7185 20.5559L85.976 22.3428L90.7185 24.1295C91.3542 24.3694 91.814 24.9297 91.9245 25.6L93.4222 34.6857L94.9197 25.6C95.0302 24.9297 95.4897 24.3694 96.1255 24.1295L96.1562 24.1183C97.7005 23.5366 99.4032 23.5366 100.947 24.1183L100.977 24.1295C101.613 24.3694 102.073 24.9297 102.184 25.6L103.681 34.6857L105.179 25.6C105.289 24.9297 105.749 24.3694 106.385 24.1295L111.127 22.3428L106.385 20.5559C105.749 20.3163 105.289 19.7559 105.179 19.0857L103.681 10L102.184 19.0857C102.073 19.7559 101.613 20.3163 100.977 20.5559L100.947 20.5675C99.4032 21.1491 97.7005 21.1491 96.1562 20.5675L96.1255 20.5559C95.4897 20.3163 95.0302 19.7559 94.9197 19.0857Z" fill="#CBD5E1"/>
</g>
<defs>
<clipPath id="clip0_8_332">
<rect width="157.25" height="25" fill="white" transform="translate(16 10)"/>
</clipPath>
</defs>
</svg>
