<svg width="190" height="44" viewBox="0 0 190 44" fill="none" xmlns="http://www.w3.org/2000/svg">
<path d="M20.3129 31L23.3314 12.8182H27.7259L26.5186 20.1158H33.683L34.8904 12.8182H39.276L36.2575 31H31.8719L33.0793 23.6935H25.9149L24.7075 31H20.3129ZM39.0141 31L42.0326 12.8182H49.5432C50.9045 12.8182 52.0409 13.0638 52.9523 13.555C53.8638 14.0404 54.5119 14.7388 54.8966 15.6502C55.2813 16.5558 55.3701 17.63 55.1629 18.8729C54.9617 20.1276 54.5119 21.1959 53.8135 22.0778C53.121 22.9537 52.2273 23.6225 51.1324 24.0842C50.0434 24.5458 48.8064 24.7766 47.4214 24.7766H42.6718L43.2577 21.3143H47.1906C47.8476 21.3143 48.4157 21.2285 48.8952 21.0568C49.3746 20.8793 49.7563 20.6129 50.0404 20.2578C50.3304 19.8968 50.5228 19.4351 50.6175 18.8729C50.7062 18.3106 50.6648 17.846 50.4932 17.479C50.3274 17.1062 50.0345 16.828 49.6143 16.6445C49.2 16.4551 48.6673 16.3604 48.0162 16.3604H45.8501L43.4086 31H39.0141ZM50.6263 22.6903L53.778 31H48.9839L45.93 22.6903H50.6263ZM73.0562 18.3047C73.1035 17.6359 72.926 17.118 72.5235 16.7511C72.127 16.3841 71.4996 16.2006 70.6414 16.2006C70.0732 16.2006 69.5879 16.2746 69.1855 16.4226C68.783 16.5646 68.4664 16.7659 68.2355 17.0263C68.0047 17.2808 67.8597 17.5767 67.8005 17.9141C67.7472 18.1804 67.762 18.4171 67.8449 18.6243C67.9278 18.8314 68.0728 19.0149 68.2799 19.1747C68.493 19.3345 68.7564 19.4736 69.07 19.592C69.3896 19.7103 69.7477 19.8139 70.1443 19.9027L71.6357 20.2578C72.4999 20.4531 73.2485 20.7135 73.8818 21.0391C74.521 21.3587 75.0389 21.7463 75.4355 22.2021C75.832 22.6519 76.1043 23.1697 76.2522 23.7557C76.4002 24.3416 76.412 24.9986 76.2877 25.7266C76.0983 26.8748 75.6456 27.8602 74.9294 28.6829C74.2192 29.5056 73.29 30.1359 72.1418 30.5739C70.9995 31.0118 69.6708 31.2308 68.1556 31.2308C66.6405 31.2308 65.3532 31.003 64.2938 30.5472C63.2403 30.0856 62.4768 29.3902 62.0033 28.4609C61.5298 27.5317 61.4026 26.3598 61.6215 24.9453H65.8208C65.7557 25.5312 65.8296 26.0195 66.0427 26.4102C66.2617 26.8008 66.599 27.0967 67.0548 27.2979C67.5105 27.4992 68.0609 27.5998 68.7061 27.5998C69.2979 27.5998 69.8158 27.5199 70.2597 27.3601C70.7095 27.2003 71.0676 26.9783 71.3339 26.6942C71.6061 26.4102 71.7719 26.0846 71.8311 25.7177C71.8902 25.3803 71.834 25.0874 71.6624 24.8388C71.4967 24.5902 71.2126 24.3742 70.8101 24.1907C70.4136 24.0072 69.8927 23.8415 69.2476 23.6935L67.4276 23.2496C65.9243 22.8827 64.785 22.2968 64.0097 21.4918C63.2403 20.6869 62.968 19.5949 63.1929 18.2159C63.3823 17.0855 63.8499 16.0971 64.5956 15.2507C65.3473 14.4044 66.2972 13.7474 67.4454 13.2798C68.5995 12.8063 69.8691 12.5696 71.254 12.5696C72.6626 12.5696 73.8463 12.8093 74.8051 13.2887C75.7699 13.7622 76.4653 14.431 76.8914 15.2951C77.3235 16.1533 77.4478 17.1565 77.2643 18.3047H73.0562ZM77.6372 31L80.6556 12.8182H93.3332L92.7295 16.3871H84.4465L83.8428 20.1158H91.4777L90.874 23.6935H83.2391L82.6354 27.4311H90.9184L90.3147 31H77.6372ZM93.0669 31L96.0853 12.8182H103.596C104.957 12.8182 106.094 13.0638 107.005 13.555C107.917 14.0404 108.565 14.7388 108.949 15.6502C109.334 16.5558 109.423 17.63 109.216 18.8729C109.014 20.1276 108.565 21.1959 107.866 22.0778C107.174 22.9537 106.28 23.6225 105.185 24.0842C104.096 24.5458 102.859 24.7766 101.474 24.7766H96.7245L97.3105 21.3143H101.243C101.9 21.3143 102.468 21.2285 102.948 21.0568C103.427 20.8793 103.809 20.6129 104.093 20.2578C104.383 19.8968 104.575 19.4351 104.67 18.8729C104.759 18.3106 104.718 17.846 104.546 17.479C104.38 17.1062 104.087 16.828 103.667 16.6445C103.253 16.4551 102.72 16.3604 102.069 16.3604H99.9028L97.4614 31H93.0669ZM104.679 22.6903L107.831 31H103.037L99.9827 22.6903H104.679ZM116.424 12.8182L118.28 26.1349H118.431L124.707 12.8182H129.626L120.473 31H114.622L111.506 12.8182H116.424ZM135.978 12.8182L132.959 31H128.565L131.583 12.8182H135.978ZM154.131 19.4055H149.745C149.769 18.9439 149.724 18.5326 149.612 18.1715C149.5 17.8046 149.322 17.4909 149.079 17.2305C148.837 16.9641 148.535 16.7629 148.174 16.6268C147.813 16.4906 147.393 16.4226 146.913 16.4226C145.996 16.4226 145.164 16.6504 144.419 17.1062C143.673 17.5619 143.048 18.2189 142.545 19.0771C142.042 19.9353 141.69 20.9651 141.489 22.1665C141.305 23.3266 141.308 24.2943 141.498 25.0696C141.693 25.8449 142.054 26.4279 142.581 26.8185C143.108 27.2032 143.776 27.3956 144.587 27.3956C145.114 27.3956 145.602 27.3335 146.052 27.2092C146.508 27.079 146.919 26.8925 147.286 26.6499C147.653 26.4072 147.97 26.1142 148.236 25.771C148.508 25.4218 148.718 25.0341 148.866 24.608H153.287C153.068 25.407 152.707 26.203 152.204 26.9961C151.707 27.7833 151.08 28.4964 150.322 29.1357C149.565 29.7749 148.686 30.2868 147.686 30.6715C146.685 31.0562 145.573 31.2486 144.347 31.2486C142.673 31.2486 141.228 30.8728 140.015 30.1211C138.808 29.3694 137.935 28.2804 137.396 26.854C136.863 25.4218 136.763 23.6876 137.094 21.6516C137.42 19.6808 138.062 18.0206 139.021 16.6712C139.985 15.3217 141.157 14.3008 142.536 13.6083C143.921 12.9158 145.398 12.5696 146.966 12.5696C148.103 12.5696 149.124 12.7235 150.029 13.0312C150.941 13.3331 151.713 13.777 152.346 14.3629C152.98 14.9429 153.45 15.6561 153.758 16.5025C154.072 17.3488 154.196 18.3165 154.131 19.4055ZM154.737 31L157.755 12.8182H170.433L169.829 16.3871H161.546L160.942 20.1158H168.577L167.974 23.6935H160.339L159.735 27.4311H168.018L167.414 31H154.737Z" fill="#CBD5E1"/>
</svg>
