<svg width="25" height="25" viewBox="0 0 25 25" fill="none" xmlns="http://www.w3.org/2000/svg">
<path d="M17.7256 16.021C18.1934 15.7015 18.7421 15.5211 19.3082 15.5004C19.8743 15.4798 20.4346 15.6199 20.9244 15.9044C21.4142 16.189 21.8135 16.6064 22.0759 17.1084C22.3384 17.6104 22.4534 18.1764 22.4076 18.741C21.2078 19.1603 19.9334 19.3235 18.6666 19.22C18.6627 18.0866 18.3363 16.9768 17.7256 16.022C17.1835 15.1718 16.4357 14.472 15.5514 13.9875C14.6672 13.503 13.6749 13.2493 12.6666 13.25C11.6584 13.2495 10.6664 13.5032 9.78234 13.9877C8.89824 14.4723 8.15061 15.1719 7.60861 16.022M18.6656 19.219L18.6666 19.25C18.6666 19.475 18.6546 19.697 18.6296 19.916C16.815 20.9571 14.7587 21.5033 12.6666 21.5C10.4966 21.5 8.45961 20.924 6.70361 19.916C6.6779 19.6846 6.66555 19.4519 6.66661 19.219M6.66661 19.219C5.40024 19.3263 4.12652 19.1637 2.92761 18.742C2.88196 18.1776 2.99701 17.6117 3.25944 17.1099C3.52187 16.6081 3.92098 16.1908 4.41061 15.9063C4.90025 15.6218 5.46041 15.4817 6.02633 15.5021C6.59225 15.5226 7.14082 15.7028 7.60861 16.022M6.66661 19.219C6.6702 18.0857 6.99823 16.9769 7.60861 16.022M15.6666 7.25C15.6666 8.04565 15.3505 8.80871 14.7879 9.37132C14.2253 9.93393 13.4623 10.25 12.6666 10.25C11.871 10.25 11.1079 9.93393 10.5453 9.37132C9.98268 8.80871 9.66661 8.04565 9.66661 7.25C9.66661 6.45435 9.98268 5.69129 10.5453 5.12868C11.1079 4.56607 11.871 4.25 12.6666 4.25C13.4623 4.25 14.2253 4.56607 14.7879 5.12868C15.3505 5.69129 15.6666 6.45435 15.6666 7.25ZM21.6666 10.25C21.6666 10.5455 21.6084 10.8381 21.4953 11.111C21.3823 11.384 21.2165 11.6321 21.0076 11.841C20.7987 12.0499 20.5506 12.2157 20.2776 12.3287C20.0047 12.4418 19.7121 12.5 19.4166 12.5C19.1211 12.5 18.8286 12.4418 18.5556 12.3287C18.2826 12.2157 18.0346 12.0499 17.8256 11.841C17.6167 11.6321 17.451 11.384 17.3379 11.111C17.2248 10.8381 17.1666 10.5455 17.1666 10.25C17.1666 9.65326 17.4037 9.08097 17.8256 8.65901C18.2476 8.23705 18.8199 8 19.4166 8C20.0133 8 20.5856 8.23705 21.0076 8.65901C21.4296 9.08097 21.6666 9.65326 21.6666 10.25ZM8.16661 10.25C8.16661 10.5455 8.10841 10.8381 7.99534 11.111C7.88227 11.384 7.71653 11.6321 7.5076 11.841C7.29867 12.0499 7.05063 12.2157 6.77765 12.3287C6.50467 12.4418 6.21209 12.5 5.91661 12.5C5.62114 12.5 5.32856 12.4418 5.05557 12.3287C4.78259 12.2157 4.53455 12.0499 4.32562 11.841C4.11669 11.6321 3.95096 11.384 3.83788 11.111C3.72481 10.8381 3.66661 10.5455 3.66661 10.25C3.66661 9.65326 3.90366 9.08097 4.32562 8.65901C4.74758 8.23705 5.31987 8 5.91661 8C6.51335 8 7.08564 8.23705 7.5076 8.65901C7.92956 9.08097 8.16661 9.65326 8.16661 10.25Z" stroke="#94A3B8" stroke-width="1.5" stroke-linecap="round" stroke-linejoin="round"/>
</svg>
